<svg width="22" height="27" viewBox="0 0 22 27" fill="none" xmlns="http://www.w3.org/2000/svg">
<path d="M2.09813 22.3097C1.72956 22.3097 1.4204 22.1848 1.17064 21.9351C0.921748 21.6862 0.797302 21.3774 0.797302 21.0089C0.797302 20.6403 0.921748 20.3316 1.17064 20.0827C1.4204 19.8329 1.72956 19.7081 2.09813 19.7081H3.39895V10.6023C3.39895 8.8028 3.94096 7.20366 5.02498 5.80484C6.109 4.40688 7.51823 3.4911 9.25266 3.05749V2.14692C9.25266 1.60491 9.44258 1.14441 9.82243 0.76544C10.2014 0.385599 10.6619 0.195679 11.2039 0.195679C11.7459 0.195679 12.2064 0.385599 12.5854 0.76544C12.9652 1.14441 13.1551 1.60491 13.1551 2.14692V3.05749C14.8896 3.4911 16.2988 4.40688 17.3828 5.80484C18.4668 7.20366 19.0089 8.8028 19.0089 10.6023V19.7081H20.3097C20.6782 19.7081 20.987 19.8329 21.2359 20.0827C21.4856 20.3316 21.6105 20.6403 21.6105 21.0089C21.6105 21.3774 21.4856 21.6862 21.2359 21.9351C20.987 22.1848 20.6782 22.3097 20.3097 22.3097H2.09813ZM11.2039 26.2122C10.4884 26.2122 9.87619 25.9576 9.36714 25.4486C8.85721 24.9387 8.60225 24.326 8.60225 23.6105H13.8056C13.8056 24.326 13.551 24.9387 13.042 25.4486C12.532 25.9576 11.9194 26.2122 11.2039 26.2122ZM6.0006 19.7081H16.4072V10.6023C16.4072 9.17137 15.8977 7.94643 14.8787 6.92745C13.8598 5.90847 12.6348 5.39898 11.2039 5.39898C9.77299 5.39898 8.54805 5.90847 7.52907 6.92745C6.51009 7.94643 6.0006 9.17137 6.0006 10.6023V19.7081Z" fill="#E052E0"/>
</svg>
