<svg width="22" height="15" viewBox="0 0 22 15" fill="none" xmlns="http://www.w3.org/2000/svg">
<path d="M1.22222 14.9333C0.875926 14.9333 0.585852 14.8139 0.352 14.5749C0.117333 14.3368 0 14.0415 0 13.6889C0 13.3363 0.117333 13.0409 0.352 12.8028C0.585852 12.5639 0.875926 12.4444 1.22222 12.4444H20.7778C21.1241 12.4444 21.4141 12.5639 21.648 12.8028C21.8827 13.0409 22 13.3363 22 13.6889C22 14.0415 21.8827 14.3368 21.648 14.5749C21.4141 14.8139 21.1241 14.9333 20.7778 14.9333H1.22222ZM1.22222 8.71111C0.875926 8.71111 0.585852 8.59164 0.352 8.35271C0.117333 8.11461 0 7.81926 0 7.46667C0 7.11407 0.117333 6.81831 0.352 6.57938C0.585852 6.34127 0.875926 6.22222 1.22222 6.22222H20.7778C21.1241 6.22222 21.4141 6.34127 21.648 6.57938C21.8827 6.81831 22 7.11407 22 7.46667C22 7.81926 21.8827 8.11461 21.648 8.35271C21.4141 8.59164 21.1241 8.71111 20.7778 8.71111H1.22222ZM1.22222 2.48889C0.875926 2.48889 0.585852 2.36984 0.352 2.13173C0.117333 1.8928 0 1.59704 0 1.24444C0 0.891852 0.117333 0.596089 0.352 0.357156C0.585852 0.119052 0.875926 0 1.22222 0H20.7778C21.1241 0 21.4141 0.119052 21.648 0.357156C21.8827 0.596089 22 0.891852 22 1.24444C22 1.59704 21.8827 1.8928 21.648 2.13173C21.4141 2.36984 21.1241 2.48889 20.7778 2.48889H1.22222Z" fill="#737373"/>
</svg>
