<svg width="47" height="47" viewBox="0 0 47 47" fill="none" xmlns="http://www.w3.org/2000/svg">
<circle cx="23.2039" cy="23.2039" r="23.2039" fill="#F7EDF5"/>
<path d="M14.0982 32.3097C13.7296 32.3097 13.4205 32.1848 13.1707 31.935C12.9218 31.6861 12.7974 31.3774 12.7974 31.0088C12.7974 30.6403 12.9218 30.3315 13.1707 30.0827C13.4205 29.8329 13.7296 29.708 14.0982 29.708H15.399V20.6022C15.399 18.8028 15.941 17.2036 17.025 15.8048C18.1091 14.4069 19.5183 13.4911 21.2527 13.0575V12.1469C21.2527 11.6049 21.4426 11.1444 21.8225 10.7654C22.2015 10.3856 22.662 10.1956 23.204 10.1956C23.746 10.1956 24.2065 10.3856 24.5854 10.7654C24.9653 11.1444 25.1552 11.6049 25.1552 12.1469V13.0575C26.8896 13.4911 28.2989 14.4069 29.3829 15.8048C30.4669 17.2036 31.0089 18.8028 31.0089 20.6022V29.708H32.3097C32.6783 29.708 32.987 29.8329 33.2359 30.0827C33.4857 30.3315 33.6106 30.6403 33.6106 31.0088C33.6106 31.3774 33.4857 31.6861 33.2359 31.935C32.987 32.1848 32.6783 32.3097 32.3097 32.3097H14.0982ZM23.204 36.2121C22.4885 36.2121 21.8763 35.9576 21.3672 35.4486C20.8573 34.9386 20.6023 34.326 20.6023 33.6105H25.8056C25.8056 34.326 25.5511 34.9386 25.042 35.4486C24.5321 35.9576 23.9194 36.2121 23.204 36.2121ZM18.0007 29.708H28.4073V20.6022C28.4073 19.1713 27.8978 17.9464 26.8788 16.9274C25.8598 15.9084 24.6349 15.3989 23.204 15.3989C21.7731 15.3989 20.5481 15.9084 19.5291 16.9274C18.5102 17.9464 18.0007 19.1713 18.0007 20.6022V29.708Z" fill="#E052E0"/>
</svg>
