<svg width="21" height="18" viewBox="0 0 21 18" fill="none" xmlns="http://www.w3.org/2000/svg">
<path d="M9.925 17.45C9.75833 17.45 9.59567 17.4293 9.437 17.388C9.279 17.346 9.125 17.2833 8.975 17.2L3.975 14.5C3.64167 14.3167 3.38333 14.071 3.2 13.763C3.01667 13.4543 2.925 13.1083 2.925 12.725V7.925L0.525 6.6C0.341667 6.5 0.208333 6.375 0.125 6.225C0.0416667 6.075 0 5.90833 0 5.725C0 5.54167 0.0416667 5.375 0.125 5.225C0.208333 5.075 0.341667 4.95 0.525 4.85L8.975 0.25C9.125 0.166667 9.279 0.104 9.437 0.0619998C9.59567 0.0206665 9.75833 0 9.925 0C10.0917 0 10.2543 0.0206665 10.413 0.0619998C10.571 0.104 10.725 0.166667 10.875 0.25L20.4 5.45C20.5667 5.53333 20.696 5.654 20.788 5.812C20.8793 5.97067 20.925 6.14167 20.925 6.325V12.725C20.925 13.0083 20.829 13.2457 20.637 13.437C20.4457 13.629 20.2083 13.725 19.925 13.725C19.6417 13.725 19.4043 13.629 19.213 13.437C19.021 13.2457 18.925 13.0083 18.925 12.725V6.825L16.925 7.925V12.725C16.925 13.1083 16.8333 13.4543 16.65 13.763C16.4667 14.071 16.2083 14.3167 15.875 14.5L10.875 17.2C10.725 17.2833 10.571 17.346 10.413 17.388C10.2543 17.4293 10.0917 17.45 9.925 17.45ZM9.925 9.425L16.775 5.725L9.925 2.025L3.075 5.725L9.925 9.425ZM9.925 15.45L14.925 12.75V8.975L10.9 11.2C10.75 11.2833 10.5917 11.3457 10.425 11.387C10.2583 11.429 10.0917 11.45 9.925 11.45C9.75833 11.45 9.59167 11.429 9.425 11.387C9.25833 11.3457 9.1 11.2833 8.95 11.2L4.925 8.975V12.75L9.925 15.45Z" fill="#737373"/>
</svg>
